<svg xmlns="http://www.w3.org/2000/svg" width="96" height="104" viewBox="0 0 96 104" fill="none">
  <!-- Cercle de fond -->
  <g filter="url(#filter0_d)">
    <path fill-rule="evenodd" clip-rule="evenodd" 
      d="M48.4664 16.9999C63.0887 16.9999 74.9425 28.8644 74.9425 43.4999C74.9425 58.1353 63.0887 69.9999 48.4664 69.9999C33.8439 69.9999 21.9901 58.1353 21.9901 43.4999C21.9901 28.8644 33.8439 16.9999 48.4664 16.9999Z" 
      fill="#FF4361"/>
    <path fill-rule="evenodd" clip-rule="evenodd" 
      d="M48.4664 16.9999C63.0887 16.9999 74.9425 28.8644 74.9425 43.4999C74.9425 58.1353 63.0887 69.9999 48.4664 69.9999C33.8439 69.9999 21.9901 58.1353 21.9901 43.4999C21.9901 28.8644 33.8439 16.9999 48.4664 16.9999Z" 
      fill="url(#paint0_linear)"/>
  </g>

  <!-- Pinceau extérieur -->
  <path fill-rule="evenodd" clip-rule="evenodd" 
    d="M69.6541 20.8701L70.8737 22.0896C71.2467 22.4588 71.2467 23.2988 70.8737 23.667L53.1342 43.2171C52.7612 43.5863 51.9217 43.5863 51.5487 43.2171L50.3291 41.9976C49.9561 41.6284 49.9561 40.7984 50.3291 40.4292L68.0686 20.8791C68.4416 20.5099 69.2811 20.5099 69.6541 20.8701ZM53.3652 41.3085L68.1456 26.089C68.5186 25.7198 69.3586 25.7198 69.7316 26.089L70.2688 26.5376C70.6418 26.9068 70.6418 27.7468 70.2688 28.115L55.4884 43.3348C55.1154 43.704 54.2754 43.704 53.9024 43.3348L53.3652 41.3085Z" 
    fill="white"/>

  <!-- Dégradé et ombre -->
  <defs>
    <filter id="filter0_d" x="0.990112" y="9" width="94.9524" height="95" filterUnits="userSpaceOnUse" color-interpolation-filters="sRGB">
      <feFlood flood-opacity="0" result="BackgroundImageFix"/>
      <feColorMatrix in="SourceAlpha" type="matrix" values="0 0 0 0 0 0 0 0 0 0 0 0 0 0 0 0 0 0 127 0"/>
      <feOffset dy="13"/>
      <feGaussianBlur stdDeviation="10.5"/>
      <feColorMatrix type="matrix" values="0 0 0 0 0.898039 0 0 0 0 0.117647 0 0 0 0 0.435294 0 0 0 0.3 0"/>
      <feBlend mode="normal" in2="BackgroundImageFix" result="effect1_dropShadow"/>
      <feBlend mode="normal" in="SourceGraphic" in2="effect1_dropShadow" result="shape"/>
    </filter>
    <linearGradient id="paint0_linear" x1="52.5978" y1="102.635" x2="107.605" y2="39.4138" gradientUnits="userSpaceOnUse">
      <stop stop-color="#F80759"/>
      <stop offset="1" stop-color="#BC4E9C"/>
    </linearGradient>
  </defs>
</svg>
